Coordinates
version=1
nRows=27
nColumns=38
inDegrees=no

Units are S.I. units (second, meters, Newtons, ...)
If the header above contains a line with 'inDegrees', this indicates whether rotational values are in degrees (yes) or radians (no).

endheader
time	pelvis_tilt	pelvis_list	pelvis_rotation	pelvis_tx	pelvis_ty	pelvis_tz	hip_flexion_r	hip_adduction_r	hip_rotation_r	knee_angle_r	ankle_angle_r	subtalar_angle_r	mtp_angle_r	hip_flexion_l	hip_adduction_l	hip_rotation_l	knee_angle_l	ankle_angle_l	subtalar_angle_l	mtp_angle_l	lumbar_extension	lumbar_bending	lumbar_rotation	arm_flex_r	arm_add_r	arm_rot_r	elbow_flex_r	pro_sup_r	wrist_flex_r	wrist_dev_r	arm_flex_l	arm_add_l	arm_rot_l	elbow_flex_l	pro_sup_l	wrist_flex_l	wrist_dev_l
3.34	-1.67047	1.5444	-0.0415243	0.869538	-0.0057169	0.89563	-0.23561	-0.0469734	0.0380907	0.193375	0.288992	0	0	0.422065	-0.233291	-0.0885099	0.271564	0.0599142	0	0	-0.146821	0.0533474	-0.0290148	-0.444142	-0.430799	0.118508	1.97829	0.177729	0	0	-0.287258	-0.269445	0.296972	0.760974	1.06194	0	0
3.35	-1.83401	1.54835	0.109107	0.873002	-0.0137646	0.894653	-0.229013	-0.0601657	0.0465358	0.211569	0.29157	0	0	0.418842	-0.23205	-0.117849	0.279121	0.0424839	0	0	-0.141546	0.0472263	-0.040297	-0.463134	-0.444956	0.116053	1.98713	0.160318	0	0	-0.285761	-0.273109	0.30123	0.756376	1.06831	0	0
3.36	-2.10024	1.55338	0.363977	0.876961	-0.0217243	0.893992	-0.220173	-0.0756348	0.0522384	0.233187	0.293818	0	0	0.415469	-0.225859	-0.140559	0.282226	0.0172906	0	0	-0.136747	0.039411	-0.0518772	-0.48445	-0.457427	0.108413	1.99472	0.136775	0	0	-0.28255	-0.277681	0.308579	0.751345	1.08187	0	0
3.37	-2.56892	1.55751	0.823266	0.881366	-0.029549	0.893643	-0.209845	-0.0922544	0.0563164	0.257917	0.294426	0	0	0.413031	-0.216191	-0.157724	0.286506	-0.00485241	0	0	-0.133007	0.0308298	-0.0656952	-0.505333	-0.469384	0.100382	2.00049	0.125322	0	0	-0.279156	-0.282032	0.314092	0.746956	1.09252	0	0
3.38	3.07352	1.55623	1.45562	0.885955	-0.0371982	0.893399	-0.195832	-0.108764	0.0598352	0.286934	0.29338	0	0	0.415784	-0.205823	-0.171397	0.300129	-0.0148007	0	0	-0.128481	0.0223197	-0.0798789	-0.527434	-0.480174	0.0900284	2.00483	0.116932	0	0	-0.274803	-0.287363	0.322158	0.74252	1.10445	0	0
3.39	2.73304	1.5506	1.78761	0.890393	-0.044799	0.893326	-0.178824	-0.123161	0.0645702	0.319793	0.289227	0	0	0.423664	-0.197829	-0.183464	0.325003	-0.0119803	0	0	-0.1234	0.0150525	-0.0929255	-0.550927	-0.488826	0.0778666	2.00837	0.109162	0	0	-0.270367	-0.29398	0.331821	0.739508	1.11795	0	0
3.4	2.59928	1.54504	1.91258	0.894562	-0.0524971	0.893602	-0.160209	-0.134805	0.0709868	0.355819	0.280373	0	0	0.432563	-0.192542	-0.192677	0.35439	-0.00342161	0	0	-0.118686	0.00938934	-0.104527	-0.57594	-0.495339	0.0640814	2.01125	0.101909	0	0	-0.266316	-0.301667	0.342231	0.738159	1.13306	0	0
3.41	2.52857	1.54029	1.97468	0.898553	-0.0603	0.894262	-0.140961	-0.144874	0.0766062	0.393259	0.266019	0	0	0.438538	-0.187679	-0.197878	0.37993	0.00463449	0	0	-0.114377	0.00468305	-0.115488	-0.602461	-0.499987	0.0487702	2.01356	0.0945854	0	0	-0.262818	-0.309723	0.351968	0.737539	1.15213	0	0
3.42	2.45538	1.53518	2.03941	0.902492	-0.0681654	0.895172	-0.11821	-0.156367	0.0769998	0.436377	0.247682	0	0	0.440019	-0.181025	-0.202952	0.39752	0.0117437	0	0	-0.109638	-0.000668083	-0.125524	-0.631209	-0.502363	0.0308529	2.0155	0.0827076	0	0	-0.259586	-0.31793	0.359489	0.737348	1.18755	0	0
3.43	2.39128	1.52989	2.09579	0.906441	-0.0759883	0.896322	-0.0936945	-0.168226	0.0749012	0.481467	0.225679	0	0	0.436628	-0.172739	-0.208828	0.405796	0.0184352	0	0	-0.104776	-0.00630273	-0.136261	-0.659781	-0.503878	0.0143057	2.01695	0.0736535	0	0	-0.257857	-0.325178	0.360348	0.738833	1.21969	0	0
3.44	2.36166	1.52436	2.1179	0.910187	-0.0836729	0.897524	-0.0659867	-0.180219	0.0667418	0.528914	0.200084	0	0	0.43089	-0.165058	-0.217839	0.408204	0.0263527	0	0	-0.0991309	-0.0113299	-0.146352	-0.68864	-0.503543	-0.0028151	2.01836	0.0671402	0	0	-0.25706	-0.333153	0.359899	0.742642	1.24547	0	0
3.45	2.36283	1.52056	2.10857	0.913908	-0.0912085	0.899113	-0.0428892	-0.184967	0.0735938	0.567506	0.166636	0	0	0.421581	-0.158854	-0.228013	0.405071	0.0338533	0	0	-0.09452	-0.0137149	-0.155574	-0.716151	-0.504981	-0.0179685	2.01985	0.0627684	0	0	-0.255973	-0.340203	0.359698	0.745649	1.2625	0	0
3.46	2.35517	1.51365	2.10685	0.917332	-0.0987898	0.900796	-0.0151695	-0.191913	0.0772365	0.608083	0.131351	0	0	0.411633	-0.149992	-0.238731	0.395755	0.0380271	0	0	-0.0859331	-0.0208172	-0.165465	-0.729646	-0.530781	0.170189	1.9655	1.5708	0	0	-0.2587	-0.347745	0.355704	0.74992	1.29178	0	0
3.47	2.3198	1.50928	2.13291	0.920798	-0.106298	0.90249	0.00982072	-0.198785	0.0780563	0.649736	0.101217	0	0	0.398304	-0.140403	-0.248595	0.385709	0.041965	0	0	-0.0813573	-0.0255644	-0.173905	-0.755721	-0.530681	0.155301	1.96497	1.5708	0	0	-0.260342	-0.355389	0.354436	0.756261	1.29464	0	0
3.48	2.27941	1.50688	2.16451	0.924053	-0.113821	0.904373	0.0317633	-0.204366	0.0756451	0.689728	0.0758934	0	0	0.382319	-0.130849	-0.255656	0.374037	0.0435023	0	0	-0.0785127	-0.0298168	-0.182445	-0.782165	-0.529873	0.141829	1.96465	1.5708	0	0	-0.262772	-0.364752	0.355625	0.764684	1.29819	0	0
3.49	2.23884	1.50497	2.19577	0.927027	-0.121054	0.906203	0.0543202	-0.210463	0.0693094	0.731167	0.0527545	0	0	0.36605	-0.12166	-0.26124	0.361637	0.0424193	0	0	-0.0763926	-0.0342814	-0.190258	-0.808287	-0.526552	0.127447	1.96336	1.5708	0	0	-0.266023	-0.374896	0.356134	0.774522	1.30178	0	0
3.5	2.20727	1.50378	2.21808	0.929863	-0.127904	0.907983	0.0764584	-0.215182	0.0622013	0.771845	0.0295952	0	0	0.351136	-0.113972	-0.267831	0.350932	0.0410059	0	0	-0.075114	-0.0379676	-0.198716	-0.83136	-0.528912	0.120695	1.96048	1.5708	0	0	-0.269963	-0.383668	0.35176	0.782772	1.30363	0	0
3.51	2.18713	1.50341	2.23031	0.93267	-0.134511	0.909745	0.0970124	-0.218519	0.0523801	0.809581	0.00457184	0	0	0.338084	-0.1077	-0.274614	0.343136	0.0415097	0	0	-0.0746294	-0.040495	-0.208014	-0.854105	-0.525831	0.109113	1.95545	1.5708	0	0	-0.273448	-0.391975	0.346138	0.789468	1.30601	0	0
3.52	2.16305	1.50505	2.24823	0.93549	-0.140991	0.911681	0.113334	-0.22088	0.0395318	0.842548	-0.0141694	0	0	0.323648	-0.101671	-0.277672	0.335193	0.0432271	0	0	-0.0761073	-0.0417194	-0.218347	-0.875754	-0.52153	0.0967118	1.94882	1.5708	0	0	-0.275864	-0.399725	0.340235	0.793604	1.31013	0	0
3.53	2.14174	1.50821	2.26384	0.938134	-0.147182	0.913731	0.128081	-0.221051	0.0272177	0.873705	-0.0216872	0	0	0.30828	-0.0968738	-0.278976	0.326987	0.0450929	0	0	-0.0791061	-0.0415835	-0.228674	-0.895259	-0.51713	0.0861187	1.93989	1.5708	0	0	-0.277529	-0.406354	0.331983	0.795052	1.31376	0	0
3.54	2.13949	1.51212	2.2608	0.940527	-0.153191	0.91578	0.142996	-0.217928	0.0166834	0.904761	-0.015934	0	0	0.293104	-0.0937716	-0.280085	0.318163	0.0472077	0	0	-0.0822207	-0.0398819	-0.238495	-0.915437	-0.501903	0.0670817	1.92684	1.5708	0	0	-0.278665	-0.411735	0.32237	0.793533	1.3151	0	0
3.55	2.16005	1.51725	2.23649	0.942754	-0.159188	0.917841	0.156028	-0.211287	0.00696782	0.933078	-0.00325223	0	0	0.277773	-0.0922486	-0.2799	0.308793	0.0496126	0	0	-0.0851223	-0.0364383	-0.251138	-0.928897	-0.514388	0.0794936	1.91359	1.5708	0	0	-0.281776	-0.415371	0.308941	0.790266	1.31451	0	0
3.56	2.20608	1.52242	2.18688	0.944766	-0.165021	0.919819	0.168961	-0.202315	-0.00206678	0.958061	0.0112584	0	0	0.26298	-0.0917503	-0.279524	0.298928	0.0517962	0	0	-0.0876235	-0.0323626	-0.263201	-0.941302	-0.517516	0.0849232	1.89551	1.5708	0	0	-0.284776	-0.418418	0.294969	0.78606	1.31202	0	0
3.57	2.26789	1.52782	2.12154	0.946571	-0.170759	0.921751	0.181009	-0.192	-0.0113249	0.979451	0.0234656	0	0	0.248074	-0.0918186	-0.279002	0.289003	0.0536125	0	0	-0.0903573	-0.028021	-0.275092	-0.953761	-0.510639	0.0813066	1.87461	1.5708	0	0	-0.288171	-0.420757	0.28021	0.781349	1.30746	0	0
3.58	2.3484	1.53209	2.03644	0.948148	-0.176264	0.923495	0.194282	-0.181663	-0.0202712	0.999316	0.0318015	0	0	0.234276	-0.0919544	-0.279292	0.27937	0.0542528	0	0	-0.0921848	-0.0243436	-0.28629	-0.963354	-0.502795	0.0789644	1.85189	1.5708	0	0	-0.292349	-0.422607	0.265523	0.776489	1.30211	0	0
3.59	2.4482	1.53557	1.9313	0.949512	-0.181585	0.925106	0.207826	-0.171076	-0.0290238	1.01729	0.0360237	0	0	0.22097	-0.0922176	-0.280045	0.26957	0.0539941	0	0	-0.0934674	-0.0210516	-0.296831	-0.970578	-0.494203	0.0790552	1.82725	1.5708	0	0	-0.296942	-0.423831	0.250805	0.771349	1.29546	0	0
3.6	2.55996	1.53827	1.81316	0.950685	-0.186662	0.926613	0.221819	-0.160818	-0.0379983	1.03378	0.039671	0	0	0.207819	-0.0923907	-0.281291	0.259245	0.0534525	0	0	-0.0945514	-0.018323	-0.306201	-0.975405	-0.484922	0.080929	1.80073	1.5708	0	0	-0.301455	-0.424616	0.236546	0.766209	1.28797	0	0
